<svg width="1653" height="993" xmlns="http://www.w3.org/2000/svg" xmlns:xlink="http://www.w3.org/1999/xlink" overflow="hidden"><defs><clipPath id="clip0"><rect x="1289" y="200" width="1653" height="993"/></clipPath><clipPath id="clip1"><rect x="1290" y="200" width="1650" height="990"/></clipPath><clipPath id="clip2"><rect x="1290" y="200" width="1650" height="990"/></clipPath><clipPath id="clip3"><rect x="1400" y="250" width="1493" height="732"/></clipPath><clipPath id="clip4"><rect x="1400" y="250" width="1493" height="732"/></clipPath><clipPath id="clip5"><rect x="1290" y="200" width="1650" height="990"/></clipPath><clipPath id="clip6"><rect x="1290" y="200" width="1650" height="990"/></clipPath><clipPath id="clip7"><rect x="1290" y="200" width="1650" height="990"/></clipPath><clipPath id="clip8"><rect x="1290" y="200" width="1650" height="990"/></clipPath><clipPath id="clip9"><rect x="1290" y="200" width="1650" height="990"/></clipPath><clipPath id="clip10"><rect x="1290" y="200" width="1650" height="990"/></clipPath><clipPath id="clip11"><rect x="1290" y="200" width="1650" height="990"/></clipPath><clipPath id="clip12"><rect x="1290" y="200" width="1650" height="990"/></clipPath><clipPath id="clip13"><rect x="1290" y="200" width="1650" height="990"/></clipPath><clipPath id="clip14"><rect x="1290" y="200" width="1650" height="990"/></clipPath><clipPath id="clip15"><rect x="1290" y="200" width="1650" height="990"/></clipPath><clipPath id="clip16"><rect x="1290" y="200" width="1650" height="990"/></clipPath><clipPath id="clip17"><rect x="1290" y="200" width="1650" height="990"/></clipPath><clipPath id="clip18"><rect x="1290" y="200" width="1650" height="990"/></clipPath><clipPath id="clip19"><rect x="1290" y="200" width="1650" height="990"/></clipPath><clipPath id="clip20"><rect x="1290" y="200" width="1650" height="990"/></clipPath><clipPath id="clip21"><rect x="1290" y="200" width="1650" height="990"/></clipPath><clipPath id="clip22"><rect x="1290" y="200" width="1650" height="990"/></clipPath><clipPath id="clip23"><rect x="1290" y="200" width="1650" height="990"/></clipPath><clipPath id="clip24"><rect x="1290" y="200" width="1650" height="990"/></clipPath><clipPath id="clip25"><rect x="1290" y="200" width="1650" height="990"/></clipPath><clipPath id="clip26"><rect x="1290" y="200" width="1650" height="990"/></clipPath></defs><g clip-path="url(#clip0)" transform="translate(-1289 -200)"><rect x="1290" y="201" width="1650" height="990" fill="#FFFFFF"/><g clip-path="url(#clip1)"><path d="M1400.5 906.53 2889.5 906.53M1400.5 833.527 2889.5 833.527M1400.5 760.525 2889.5 760.525M1400.5 687.523 2889.5 687.523M1400.5 615.52 2889.5 615.52M1400.5 542.518 2889.5 542.518M1400.5 469.516 2889.5 469.516M1400.5 396.513 2889.5 396.513M1400.5 323.511 2889.5 323.511M1400.5 250.5 2889.5 250.5" stroke="#D9D9D9" stroke-width="3.4375" stroke-linejoin="round" stroke-miterlimit="10" fill="none"/></g><g clip-path="url(#clip2)"><path d="M1400.5 979.5 2889.5 979.5" stroke="#D9D9D9" stroke-width="3.4375" stroke-linejoin="round" stroke-miterlimit="10" fill="none" fill-rule="evenodd"/></g><g clip-path="url(#clip3)"><path d="M1506 907 1719.06 652 1932.06 652 2145.07 688.023 2358.08 688.023 2570.08 652 2783 870.029" stroke="#4472C4" stroke-width="10.3125" stroke-linecap="round" stroke-linejoin="round" stroke-miterlimit="10" fill="none"/></g><g clip-path="url(#clip4)"><path d="M1506 397.013 1719.06 324 1932.06 397.013 2145.07 397.013 2358.08 615 2570.08 360.012 2783 506.017" stroke="#ED7D31" stroke-width="10.3125" stroke-linecap="round" stroke-linejoin="round" stroke-miterlimit="10" fill="none"/></g><g clip-path="url(#clip5)"><text fill="#595959" font-family="Calibri,Calibri_MSFontService,sans-serif" font-weight="400" font-size="41" transform="matrix(1 0 0 1 1340.9 991)">0</text></g><g clip-path="url(#clip6)"><text fill="#595959" font-family="Calibri,Calibri_MSFontService,sans-serif" font-weight="400" font-size="41" transform="matrix(1 0 0 1 1340.9 918)">2</text></g><g clip-path="url(#clip7)"><text fill="#595959" font-family="Calibri,Calibri_MSFontService,sans-serif" font-weight="400" font-size="41" transform="matrix(1 0 0 1 1340.9 845)">4</text></g><g clip-path="url(#clip8)"><text fill="#595959" font-family="Calibri,Calibri_MSFontService,sans-serif" font-weight="400" font-size="41" transform="matrix(1 0 0 1 1340.9 772)">6</text></g><g clip-path="url(#clip9)"><text fill="#595959" font-family="Calibri,Calibri_MSFontService,sans-serif" font-weight="400" font-size="41" transform="matrix(1 0 0 1 1340.9 700)">8</text></g><g clip-path="url(#clip10)"><text fill="#595959" font-family="Calibri,Calibri_MSFontService,sans-serif" font-weight="400" font-size="41" transform="matrix(1 0 0 1 1320 627)">10</text></g><g clip-path="url(#clip11)"><text fill="#595959" font-family="Calibri,Calibri_MSFontService,sans-serif" font-weight="400" font-size="41" transform="matrix(1 0 0 1 1320 554)">12</text></g><g clip-path="url(#clip12)"><text fill="#595959" font-family="Calibri,Calibri_MSFontService,sans-serif" font-weight="400" font-size="41" transform="matrix(1 0 0 1 1320 481)">14</text></g><g clip-path="url(#clip13)"><text fill="#595959" font-family="Calibri,Calibri_MSFontService,sans-serif" font-weight="400" font-size="41" transform="matrix(1 0 0 1 1320 408)">16</text></g><g clip-path="url(#clip14)"><text fill="#595959" font-family="Calibri,Calibri_MSFontService,sans-serif" font-weight="400" font-size="41" transform="matrix(1 0 0 1 1320 335)">18</text></g><g clip-path="url(#clip15)"><text fill="#595959" font-family="Calibri,Calibri_MSFontService,sans-serif" font-weight="400" font-size="41" transform="matrix(1 0 0 1 1320 262)">20</text></g><g clip-path="url(#clip16)"><text fill="#595959" font-family="Calibri,Calibri_MSFontService,sans-serif" font-weight="400" font-size="41" transform="matrix(1 0 0 1 1485.58 1045)">12</text></g><g clip-path="url(#clip17)"><text fill="#595959" font-family="Calibri,Calibri_MSFontService,sans-serif" font-weight="400" font-size="41" transform="matrix(1 0 0 1 1698.39 1045)">13</text></g><g clip-path="url(#clip18)"><text fill="#595959" font-family="Calibri,Calibri_MSFontService,sans-serif" font-weight="400" font-size="41" transform="matrix(1 0 0 1 1911.21 1045)">14</text></g><g clip-path="url(#clip19)"><text fill="#595959" font-family="Calibri,Calibri_MSFontService,sans-serif" font-weight="400" font-size="41" transform="matrix(1 0 0 1 2124.03 1045)">15</text></g><g clip-path="url(#clip20)"><text fill="#595959" font-family="Calibri,Calibri_MSFontService,sans-serif" font-weight="400" font-size="41" transform="matrix(1 0 0 1 2336.85 1045)">16</text></g><g clip-path="url(#clip21)"><text fill="#595959" font-family="Calibri,Calibri_MSFontService,sans-serif" font-weight="400" font-size="41" transform="matrix(1 0 0 1 2549.66 1045)">17</text></g><g clip-path="url(#clip22)"><text fill="#595959" font-family="Calibri,Calibri_MSFontService,sans-serif" font-weight="400" font-size="41" transform="matrix(1 0 0 1 2762.48 1045)">18</text></g><g clip-path="url(#clip23)"><path d="M1924 1124 2012 1124" stroke="#4472C4" stroke-width="10.3125" stroke-linecap="round" stroke-linejoin="round" stroke-miterlimit="10" fill="none" fill-rule="evenodd"/></g><g clip-path="url(#clip24)"><text fill="#595959" font-family="Yu Gothic,Yu Gothic_MSFontService,sans-serif" font-weight="400" font-size="41" transform="matrix(1 0 0 1 2021.59 1137)">最低</text></g><g clip-path="url(#clip25)"><path d="M2142 1124 2230 1124" stroke="#ED7D31" stroke-width="10.3125" stroke-linecap="round" stroke-linejoin="round" stroke-miterlimit="10" fill="none" fill-rule="evenodd"/></g><g clip-path="url(#clip26)"><text fill="#595959" font-family="Yu Gothic,Yu Gothic_MSFontService,sans-serif" font-weight="400" font-size="41" transform="matrix(1 0 0 1 2239.76 1137)">最高</text></g><rect x="1290.5" y="201.5" width="1650" height="990" stroke="#D9D9D9" stroke-width="3.4375" stroke-linejoin="round" stroke-miterlimit="10" fill="none"/></g></svg>